<?xml version="1.0" encoding="UTF-8"?>
<svg width="53px" height="48px" viewBox="0 0 53 48" version="1.1" xmlns="http://www.w3.org/2000/svg" xmlns:xlink="http://www.w3.org/1999/xlink">
    <!-- Generator: Sketch 60.1 (88133) - https://sketch.com -->
    <title>编组 2</title>
    <desc>Created with Sketch.</desc>
    <defs>
        <linearGradient x1="25.4771201%" y1="100%" x2="55.3304875%" y2="0%" id="linearGradient-1">
            <stop stop-color="#105CE3" offset="0%"></stop>
            <stop stop-color="#96BDFA" offset="100%"></stop>
        </linearGradient>
        <linearGradient x1="-10.3190121%" y1="51.1928715%" x2="100%" y2="52.9049018%" id="linearGradient-2">
            <stop stop-color="#105CE3" offset="0%"></stop>
            <stop stop-color="#96BDFA" offset="100%"></stop>
        </linearGradient>
        <linearGradient x1="19.439979%" y1="56.439606%" x2="75.3319973%" y2="65.6818422%" id="linearGradient-3">
            <stop stop-color="#105CE3" offset="0%"></stop>
            <stop stop-color="#96BDFA" offset="100%"></stop>
        </linearGradient>
        <linearGradient x1="18.685885%" y1="56.439606%" x2="75.9570855%" y2="65.6818422%" id="linearGradient-4">
            <stop stop-color="#105CE3" offset="0%"></stop>
            <stop stop-color="#96BDFA" offset="100%"></stop>
        </linearGradient>
    </defs>
    <g id="页面-1" stroke="none" stroke-width="1" fill="none" fill-rule="evenodd">
        <g id="登录" transform="translate(-1279.000000, -293.000000)">
            <g id="编组-2" transform="translate(1276.000000, 289.000000)">
                <ellipse id="椭圆形" fill="url(#linearGradient-1)" cx="46.5" cy="41.5" rx="9.5" ry="10.5"></ellipse>
                <path d="M0.170231669,20.4857077 C4.29285942,16.2062783 10.9769597,16.2062783 15.0995874,20.4857077 C15.1732058,20.5621261 15.2455095,20.6393924 15.3164986,20.7174762 L15.5288492,20.9203682 C19.5469965,24.6420658 25.6486706,24.6201218 29.6422481,20.8545363 C29.7498981,20.7283484 29.8625053,20.605978 29.9783688,20.4857077 C34.1009965,16.2062783 40.7850968,16.2062783 44.9077245,20.4857077 C49.0303523,24.7651372 49.0303523,31.7034633 44.9077245,35.9828928 C40.7850968,40.2623223 34.1009965,40.2623223 29.9783688,35.9828928 C29.9123661,35.9143798 29.8474201,35.8451852 29.7835309,35.775331 C25.6461582,31.7286602 19.1320753,31.8062978 15.085649,36.0066276 L15.0858946,35.997081 C10.9621726,40.2623171 4.28829827,40.2575877 0.170231669,35.9828928 C-3.95239608,31.7034633 -3.95239608,24.7651372 0.170231669,20.4857077 Z" id="形状结合" fill="url(#linearGradient-2)" transform="translate(22.538978, 28.234300) rotate(-60.000000) translate(-22.538978, -28.234300) "></path>
                <path d="M19.9573134,20.3931451 C19.9856303,20.8534566 20,21.3175909 20,21.7851206 C20,31.780138 13.4325695,40.2233423 4.42519882,42.9390574 L4.18640187,43.0089076 C2.8703033,37.3765254 6.240761,31.8115467 11.9340801,30.408011 C12.0385933,30.382246 12.1431862,30.3580568 12.2478324,30.3354279 C16.8246972,29.062377 19.8226223,25.0652198 19.9542562,20.5740842 Z" id="形状结合" fill="url(#linearGradient-3)"></path>
                <path d="M33.0936974,25.8803774 C32.9940654,25.9054474 32.8943659,25.9290544 32.7946224,25.9512119 C27.7808715,27.3840463 24.6868297,32.1514421 25.2831324,37.18675 L25.288629,37.2260145 C25.0989273,36.1433185 25,35.0293016 25,33.892133 C25,24.3829543 31.9175513,16.4926762 40.9854435,14.99801 C41.3636086,19.9796042 38.1552906,24.6067476 33.0936974,25.8803774 Z" id="形状结合" fill="url(#linearGradient-4)"></path>
            </g>
        </g>
    </g>
</svg>